# Blender 3.6.0
# www.blender.org
o CarBody
v -0.708609 -1.769654 -0.289432
v -0.708609 -1.496999 -0.289432
v -0.708609 1.021388 -0.289432
v -0.708609 1.294042 -0.289432
v -0.708609 -1.008179 0.617178
v -0.708609 -0.608179 0.617178
v -0.708609 -0.208179 0.617178
v -0.708609 0.191821 0.617178
v -0.708609 -1.999711 -0.429258
v -0.708609 -1.336554 -0.429258
v -0.708609 0.804010 -0.429258
v -0.708609 1.512911 -0.429258
v -0.708609 2.136060 0.037178
v -0.708609 2.136060 -0.182822
v -0.708609 0.591821 0.617178
v -0.708609 -2.408179 -0.429258
v -0.708609 -2.408179 0.217178
v -0.708609 -2.408179 -0.182822
v -0.708609 -1.408179 0.617178
v -0.708609 2.136060 -0.429258
v -0.708609 -1.546457 0.561867
v -0.708609 -2.079516 0.348643
v -0.708609 1.628525 0.227803
v -0.708609 0.805355 0.536977
v 0.000000 -1.546457 0.561867
v -1.000000 -0.980174 0.495046
v -1.000000 -0.561552 0.490615
v -1.000000 0.694316 0.477324
v 0.000000 0.805354 0.536977
v -0.800000 0.805355 0.536977
v -1.000000 0.275693 0.481754
v -1.000000 -1.398797 0.499476
v -0.800000 -1.546457 0.561867
v -1.000000 -0.142929 0.486185
v -1.000000 -1.213188 0.288198
v -1.000000 -0.553156 0.266688
v -1.000000 0.106875 0.245178
v -1.000000 0.766906 0.223669
v -0.800000 1.628525 0.227803
v -0.800000 -2.079516 0.348643
v 0.000000 -2.079516 0.348643
v 0.000000 1.628525 0.227803
v -1.000000 -1.873219 0.309707
v -1.000000 1.426938 0.202159
v -1.000000 0.504270 0.548703
v -1.000000 1.878644 -0.365733
v -1.000000 -1.275729 0.548703
v -1.000000 -2.165730 -0.365733
v -1.000000 1.878644 0.032503
v -1.000000 1.878644 -0.163297
v -1.000000 -2.165730 0.192703
v -1.000000 -2.165730 -0.163297
v 0.000000 2.136060 -0.429258
v 0.000000 -1.408180 0.617178
v 0.000000 -2.408179 -0.429258
v 0.000000 0.591820 0.617178
v 0.000000 2.136060 -0.182822
v 0.000000 2.136060 0.037178
v 0.000000 -2.408179 -0.182822
v 0.000000 -2.408179 0.217178
v -0.800000 -2.408179 -0.429258
v -0.800000 0.591821 0.617178
v -0.800000 2.136060 -0.182822
v -0.800000 2.136060 0.037178
v -0.800000 2.136060 -0.429258
v -0.800000 -1.408179 0.617178
v -0.800000 -2.408179 -0.182822
v -0.800000 -2.408179 0.217178
v -1.000000 0.148270 0.548703
v -1.000000 -0.207729 0.548703
v -1.000000 -0.563730 0.548703
v -1.000000 -0.919729 0.548703
v -1.000000 -1.756911 -0.289399
v -1.000000 -1.514248 -0.289399
v -1.000000 1.034147 -0.289399
v -1.000000 1.276809 -0.289399
v -1.000000 1.069769 -0.163297
v -1.000000 0.260894 -0.163297
v -1.000000 -0.547980 -0.163297
v -1.000000 -1.356855 -0.163297
v -1.000000 1.069769 0.064543
v -1.000000 0.260894 0.096583
v -1.000000 -0.547980 0.128623
v -1.000000 -1.356855 0.160663
v 0.000000 1.512911 -0.429258
v 0.000000 0.804010 -0.429258
v 0.000000 -1.336554 -0.429258
v 0.000000 -1.999711 -0.429258
v 0.000000 0.191820 0.617178
v 0.000000 -0.208180 0.617178
v 0.000000 -0.608180 0.617178
v 0.000000 -1.008180 0.617178
v -0.800000 0.191821 0.617178
v -0.800000 -0.208179 0.617178
v -0.800000 -0.608179 0.617178
v -0.800000 -1.008179 0.617178
v -0.800000 1.512911 -0.429258
v -0.800000 0.804010 -0.429258
v -0.800000 -1.336554 -0.429258
v -0.800000 -1.999711 -0.429258
v 0.000000 1.294042 -0.289432
v 0.000000 1.021388 -0.289432
v 0.000000 -1.496999 -0.289432
v 0.000000 -1.769654 -0.289432
v -0.800000 1.294042 -0.289432
v -0.800000 1.021388 -0.289432
v -0.800000 -1.496999 -0.289432
v -0.800000 -1.769654 -0.289432
v 0.708609 -1.769654 -0.289432
v 0.708609 -1.496999 -0.289432
v 0.708609 1.021388 -0.289432
v 0.708609 1.294042 -0.289432
v 0.708609 -1.008179 0.617178
v 0.708609 -0.608179 0.617178
v 0.708609 -0.208179 0.617178
v 0.708609 0.191821 0.617178
v 0.708609 -1.999711 -0.429258
v 0.708609 -1.336554 -0.429258
v 0.708609 0.804010 -0.429258
v 0.708609 1.512911 -0.429258
v 0.708609 2.136060 0.037178
v 0.708609 2.136060 -0.182822
v 0.708609 0.591821 0.617178
v 0.708609 -2.408179 -0.429258
v 0.708609 -2.408179 0.217178
v 0.708609 -2.408179 -0.182822
v 0.708609 -1.408179 0.617178
v 0.708609 2.136060 -0.429258
v 0.708609 -1.546457 0.561867
v 0.708609 -2.079516 0.348643
v 0.708609 1.628525 0.227803
v 0.708609 0.805355 0.536977
v 1.000000 -0.980174 0.495046
v 1.000000 -0.561552 0.490615
v 1.000000 0.694316 0.477324
v 0.800000 0.805355 0.536977
v 1.000000 0.275693 0.481754
v 1.000000 -1.398797 0.499476
v 0.800000 -1.546457 0.561867
v 1.000000 -0.142929 0.486185
v 1.000000 -1.213188 0.288198
v 1.000000 -0.553156 0.266688
v 1.000000 0.106875 0.245178
v 1.000000 0.766906 0.223669
v 0.800000 1.628525 0.227803
v 0.800000 -2.079516 0.348643
v 1.000000 -1.873219 0.309707
v 1.000000 1.426938 0.202159
v 1.000000 0.504270 0.548703
v 1.000000 1.878644 -0.365733
v 1.000000 -1.275729 0.548703
v 1.000000 -2.165730 -0.365733
v 1.000000 1.878644 0.032503
v 1.000000 1.878644 -0.163297
v 1.000000 -2.165730 0.192703
v 1.000000 -2.165730 -0.163297
v 0.800000 -2.408179 -0.429258
v 0.800000 0.591821 0.617178
v 0.800000 2.136060 -0.182822
v 0.800000 2.136060 0.037178
v 0.800000 2.136060 -0.429258
v 0.800000 -1.408179 0.617178
v 0.800000 -2.408179 -0.182822
v 0.800000 -2.408179 0.217178
v 1.000000 0.148270 0.548703
v 1.000000 -0.207729 0.548703
v 1.000000 -0.563730 0.548703
v 1.000000 -0.919729 0.548703
v 1.000000 -1.756911 -0.289399
v 1.000000 -1.514248 -0.289399
v 1.000000 1.034147 -0.289399
v 1.000000 1.276809 -0.289399
v 1.000000 1.069769 -0.163297
v 1.000000 0.260894 -0.163297
v 1.000000 -0.547980 -0.163297
v 1.000000 -1.356855 -0.163297
v 1.000000 1.069769 0.064543
v 1.000000 0.260894 0.096583
v 1.000000 -0.547980 0.128623
v 1.000000 -1.356855 0.160663
v 0.800000 0.191821 0.617178
v 0.800000 -0.208179 0.617178
v 0.800000 -0.608179 0.617178
v 0.800000 -1.008179 0.617178
v 0.800000 1.512911 -0.429258
v 0.800000 0.804010 -0.429258
v 0.800000 -1.336554 -0.429258
v 0.800000 -1.999711 -0.429258
v 0.800000 1.294042 -0.289432
v 0.800000 1.021388 -0.289432
v 0.800000 -1.496999 -0.289432
v 0.800000 -1.769654 -0.289432
vn -0.0000 0.3516 0.9361
vn -0.0000 -0.3714 0.9285
vn -0.0000 -0.0000 -1.0000
vn -0.0000 -0.0000 1.0000
vn -0.0000 -1.0000 -0.0000
vn -0.0000 1.0000 -0.0000
vn -1.0000 -0.0000 -0.0000
vn -0.0000 -0.5384 -0.8427
vn -0.0000 -0.6570 -0.7539
vn -0.4911 -0.3235 0.8088
vn -0.0000 0.5410 -0.8410
vn -0.4286 0.3177 0.8458
vn -0.0000 0.5194 -0.8545
vn -0.3661 0.0865 -0.9265
vn -0.7897 0.6135 -0.0000
vn -0.3239 -0.0000 0.9461
vn -0.7714 -0.6363 -0.0000
vn 0.0462 -0.5378 -0.8418
vn -0.3956 -0.0571 -0.9166
vn 0.0344 0.5407 -0.8405
vn -0.5731 -0.0000 -0.8195
vn 0.0565 -0.6560 -0.7527
vn 0.0329 0.5191 -0.8541
vn -0.0002 -0.0000 -1.0000
vn 1.0000 -0.0000 -0.0000
vn 0.4911 -0.3235 0.8088
vn 0.4286 0.3177 0.8458
vn 0.3661 0.0865 -0.9265
vn 0.7897 0.6135 -0.0000
vn 0.3239 -0.0000 0.9461
vn 0.7714 -0.6363 -0.0000
vn -0.0462 -0.5378 -0.8418
vn 0.3956 -0.0571 -0.9166
vn -0.0344 0.5407 -0.8405
vn 0.5731 -0.0000 -0.8195
vn -0.0565 -0.6560 -0.7527
vn -0.0329 0.5191 -0.8541
vn 0.0002 -0.0000 -1.0000
vt 0.709974 0.210268
vt 0.709974 0.050211
vt 0.629704 0.050211
vt 0.629704 0.210268
vt 0.629704 0.773011
vt 0.629704 0.793654
vt 0.709974 0.793654
vt 0.709974 0.773011
vt 0.053171 0.276086
vt 0.053171 0.366436
vt 0.213228 0.366436
vt 0.213228 0.276086
vt 0.775972 0.637486
vt 0.775972 0.727836
vt 0.796615 0.727836
vt 0.796615 0.637486
vt 0.730797 0.793654
vt 0.730797 0.773011
vt 0.279046 0.773011
vt 0.279046 0.793654
vt 0.429630 0.793654
vt 0.429630 0.773011
vt 0.580213 0.050211
vt 0.580213 0.210268
vt 0.053171 0.637486
vt 0.053171 0.727836
vt 0.213228 0.727836
vt 0.213228 0.637486
vt 0.580213 0.793654
vt 0.580213 0.773011
vt 0.279046 0.050211
vt 0.279046 0.210268
vt 0.429630 0.210268
vt 0.429630 0.050211
vt 0.629704 0.230911
vt 0.709974 0.230911
vt 0.580213 0.637486
vt 0.580213 0.727836
vt 0.629704 0.727836
vt 0.629704 0.637486
vt 0.775972 0.276086
vt 0.775972 0.366436
vt 0.796615 0.366436
vt 0.796615 0.276086
vt 0.775972 0.456786
vt 0.775972 0.547136
vt 0.796615 0.547136
vt 0.796615 0.456786
vt 0.730797 0.210268
vt 0.730797 0.050211
vt 0.580213 0.230911
vt 0.580213 0.276086
vt 0.580213 0.366436
vt 0.629704 0.366436
vt 0.629704 0.276086
vt 0.580213 0.456786
vt 0.629704 0.456786
vt 0.709974 0.366436
vt 0.709974 0.276086
vt 0.709974 0.456786
vt 0.629704 0.547136
vt 0.709974 0.547136
vt 0.629704 0.953711
vt 0.709974 0.953711
vt 0.053171 0.547136
vt 0.213228 0.547136
vt 0.213228 0.637486
vt 0.053171 0.456786
vt 0.213228 0.456786
vt 0.709974 0.727836
vt 0.233871 0.456786
vt 0.709974 0.637486
vt 0.580213 0.547136
vt 0.233871 0.637486
vt 0.580213 0.953711
vt 0.233871 0.727836
vt 0.279046 0.727836
vt 0.279046 0.637486
vt 0.730797 0.727836
vt 0.730797 0.637486
vt 0.730797 0.276086
vt 0.730797 0.230911
vt 0.279046 0.230911
vt 0.279046 0.276086
vt 0.429630 0.276086
vt 0.429630 0.230911
vt 0.429630 0.727836
vt 0.429630 0.637486
vt 0.429630 0.953711
vt 0.279046 0.953711
vt 0.730797 0.953711
vt 0.956672 0.727836
vt 0.956672 0.637486
vt 0.233871 0.366436
vt 0.233871 0.276086
vt 0.279046 0.366436
vt 0.233871 0.547136
vt 0.730797 0.366436
vt 0.730797 0.456786
vt 0.730797 0.547136
vt 0.956672 0.366436
vt 0.956672 0.276086
vt 0.956672 0.456786
vt 0.956672 0.547136
vt 0.429630 0.366436
vt 0.429630 0.456786
vt 0.429630 0.547136
vt 0.279046 0.456786
vt 0.279046 0.547136
s 0
f 24/1/1 29/2/1 42/3/1 23/4/1
f 40/5/2 22/6/2 21/7/2 33/8/2
f 53/9/3 85/10/3 12/11/3 20/12/3
f 96/13/4 66/14/4 19/15/4 5/16/4
f 33/8/2 21/7/2 19/17/2 66/18/2
f 61/19/5 16/20/5 18/21/5 67/22/5
f 58/23/1 13/24/1 23/4/1 42/3/1
f 88/25/3 55/26/3 16/27/3 9/28/3
f 67/22/5 18/21/5 17/29/5 68/30/5
f 53/31/6 20/32/6 14/33/6 57/34/6
f 57/34/6 14/33/6 13/24/6 58/23/6
f 68/30/2 17/29/2 22/6/2 40/5/2
f 23/4/1 39/35/1 30/36/1 24/1/1
f 84/37/7 51/38/7 43/39/7 35/40/7
f 62/41/4 93/42/4 8/43/4 15/44/4
f 94/45/4 95/46/4 6/47/4 7/48/4
f 85/10/8 101/10/8 4/11/8 12/11/8
f 29/2/1 24/1/1 15/49/1 56/50/1
f 13/24/1 64/51/1 39/35/1 23/4/1
f 49/52/7 81/53/7 38/54/7 44/55/7
f 81/53/7 82/56/7 37/57/7 38/54/7
f 44/55/7 38/54/7 31/58/7 28/59/7
f 38/54/7 37/57/7 34/60/7 31/58/7
f 37/57/7 36/61/7 27/62/7 34/60/7
f 22/6/2 41/63/2 25/64/2 21/7/2
f 87/65/9 103/65/9 2/66/9 10/66/9
f 104/25/3 1/67/3 2/66/3 103/65/3
f 86/68/3 87/65/3 10/66/3 11/69/3
f 93/42/4 94/45/4 7/48/4 8/43/4
f 95/46/4 96/13/4 5/16/4 6/47/4
f 43/39/10 40/5/10 33/8/10 32/70/10
f 98/71/11 106/71/11 3/69/11 11/69/11
f 35/40/7 43/39/7 32/70/7 26/72/7
f 36/61/7 35/40/7 26/72/7 27/62/7
f 82/56/7 83/73/7 36/61/7 37/57/7
f 83/73/7 84/37/7 35/40/7 36/61/7
f 51/38/10 68/30/10 40/5/10 43/39/10
f 64/51/12 49/52/12 44/55/12 39/35/12
f 100/74/13 108/74/13 1/67/13 9/28/13
f 17/29/2 60/75/2 41/63/2 22/6/2
f 101/10/3 102/68/3 3/69/3 4/11/3
f 39/35/12 44/55/12 28/59/12 30/36/12
f 100/74/14 61/76/14 48/77/14 73/78/14
f 26/72/7 32/70/7 47/79/7 72/80/7
f 30/36/12 28/59/12 45/81/12 62/82/12
f 65/83/15 46/84/15 50/85/15 63/86/15
f 63/86/15 50/85/15 49/52/15 64/51/15
f 73/78/7 48/77/7 52/87/7 80/88/7
f 80/88/7 52/87/7 51/38/7 84/37/7
f 18/21/5 59/89/5 60/75/5 17/29/5
f 16/20/5 55/90/5 59/89/5 18/21/5
f 21/7/2 25/64/2 54/91/2 19/17/2
f 5/16/4 19/15/4 54/92/4 92/93/4
f 72/80/16 47/79/16 66/14/16 96/13/16
f 32/70/10 33/8/10 66/18/10 47/79/10
f 48/77/17 61/19/17 67/22/17 52/87/17
f 52/87/17 67/22/17 68/30/17 51/38/17
f 14/33/6 63/86/6 64/51/6 13/24/6
f 20/32/6 65/83/6 63/86/6 14/33/6
f 24/1/1 30/36/1 62/82/1 15/49/1
f 9/28/3 16/27/3 61/76/3 100/74/3
f 20/12/3 12/11/3 97/94/3 65/95/3
f 97/94/18 105/94/18 76/96/18
f 11/69/3 10/66/3 99/97/3 98/71/3
f 45/81/16 69/98/16 93/42/16 62/41/16
f 69/98/16 70/99/16 94/45/16 93/42/16
f 70/99/16 71/100/16 95/46/16 94/45/16
f 71/100/16 72/80/16 96/13/16 95/46/16
f 15/44/4 8/43/4 89/101/4 56/102/4
f 8/43/4 7/48/4 90/103/4 89/101/4
f 7/48/4 6/47/4 91/104/4 90/103/4
f 6/47/4 5/16/4 92/93/4 91/104/4
f 50/85/7 77/105/7 81/53/7 49/52/7
f 77/105/7 78/106/7 82/56/7 81/53/7
f 78/106/7 79/107/7 83/73/7 82/56/7
f 79/107/7 80/88/7 84/37/7 83/73/7
f 46/84/7 76/96/7 77/105/7 50/85/7
f 76/96/7 75/108/7 78/106/7 77/105/7
f 75/108/7 74/109/7 79/107/7 78/106/7
f 74/109/7 73/78/7 80/88/7 79/107/7
f 28/59/7 31/58/7 69/98/7 45/81/7
f 31/58/7 34/60/7 70/99/7 69/98/7
f 34/60/7 27/62/7 71/100/7 70/99/7
f 27/62/7 26/72/7 72/80/7 71/100/7
f 65/95/19 97/94/19 76/96/19 46/84/19
f 106/71/20 98/71/20 75/108/20
f 98/71/21 99/97/21 74/109/21 75/108/21
f 99/97/22 107/97/22 74/109/22
f 12/11/8 4/11/8 105/94/8 97/94/8
f 4/11/3 3/69/3 106/71/3 105/94/3
f 1/67/3 108/74/3 107/97/3 2/66/3
f 9/28/13 1/67/13 104/25/13 88/25/13
f 11/69/11 3/69/11 102/68/11 86/68/11
f 100/74/23 73/78/23 108/74/23
f 10/66/9 2/66/9 107/97/9 99/97/9
f 73/78/24 74/109/24 107/97/24 108/74/24
f 75/108/24 76/96/24 105/94/24 106/71/24
f 132/1/1 131/4/1 42/3/1 29/2/1
f 146/5/2 139/8/2 129/7/2 130/6/2
f 53/9/3 128/12/3 120/11/3 85/10/3
f 184/13/4 113/16/4 127/15/4 162/14/4
f 139/8/2 162/18/2 127/17/2 129/7/2
f 157/19/5 163/22/5 126/21/5 124/20/5
f 58/23/1 42/3/1 131/4/1 121/24/1
f 88/25/3 117/28/3 124/27/3 55/26/3
f 163/22/5 164/30/5 125/29/5 126/21/5
f 53/31/6 57/34/6 122/33/6 128/32/6
f 57/34/6 58/23/6 121/24/6 122/33/6
f 164/30/2 146/5/2 130/6/2 125/29/2
f 131/4/1 132/1/1 136/36/1 145/35/1
f 180/37/25 141/40/25 147/39/25 155/38/25
f 158/41/4 123/44/4 116/43/4 181/42/4
f 182/45/4 115/48/4 114/47/4 183/46/4
f 85/10/8 120/11/8 112/11/8 101/10/8
f 29/2/1 56/50/1 123/49/1 132/1/1
f 121/24/1 131/4/1 145/35/1 160/51/1
f 153/52/25 148/55/25 144/54/25 177/53/25
f 177/53/25 144/54/25 143/57/25 178/56/25
f 148/55/25 135/59/25 137/58/25 144/54/25
f 144/54/25 137/58/25 140/60/25 143/57/25
f 143/57/25 140/60/25 134/62/25 142/61/25
f 130/6/2 129/7/2 25/64/2 41/63/2
f 87/65/9 118/66/9 110/66/9 103/65/9
f 104/25/3 103/65/3 110/66/3 109/67/3
f 86/68/3 119/69/3 118/66/3 87/65/3
f 181/42/4 116/43/4 115/48/4 182/45/4
f 183/46/4 114/47/4 113/16/4 184/13/4
f 147/39/26 138/70/26 139/8/26 146/5/26
f 186/71/11 119/69/11 111/69/11 190/71/11
f 141/40/25 133/72/25 138/70/25 147/39/25
f 142/61/25 134/62/25 133/72/25 141/40/25
f 178/56/25 143/57/25 142/61/25 179/73/25
f 179/73/25 142/61/25 141/40/25 180/37/25
f 155/38/26 147/39/26 146/5/26 164/30/26
f 160/51/27 145/35/27 148/55/27 153/52/27
f 188/74/13 117/28/13 109/67/13 192/74/13
f 125/29/2 130/6/2 41/63/2 60/75/2
f 101/10/3 112/11/3 111/69/3 102/68/3
f 145/35/27 136/36/27 135/59/27 148/55/27
f 188/74/28 169/78/28 152/77/28 157/76/28
f 133/72/25 168/80/25 151/79/25 138/70/25
f 136/36/27 158/82/27 149/81/27 135/59/27
f 161/83/29 159/86/29 154/85/29 150/84/29
f 159/86/29 160/51/29 153/52/29 154/85/29
f 169/78/25 176/88/25 156/87/25 152/77/25
f 176/88/25 180/37/25 155/38/25 156/87/25
f 126/21/5 125/29/5 60/75/5 59/89/5
f 124/20/5 126/21/5 59/89/5 55/90/5
f 129/7/2 127/17/2 54/91/2 25/64/2
f 113/16/4 92/93/4 54/92/4 127/15/4
f 168/80/30 184/13/30 162/14/30 151/79/30
f 138/70/26 151/79/26 162/18/26 139/8/26
f 152/77/31 156/87/31 163/22/31 157/19/31
f 156/87/31 155/38/31 164/30/31 163/22/31
f 122/33/6 121/24/6 160/51/6 159/86/6
f 128/32/6 122/33/6 159/86/6 161/83/6
f 132/1/1 123/49/1 158/82/1 136/36/1
f 117/28/3 188/74/3 157/76/3 124/27/3
f 128/12/3 161/95/3 185/94/3 120/11/3
f 185/94/32 172/96/32 189/94/32
f 119/69/3 186/71/3 187/97/3 118/66/3
f 149/81/30 158/41/30 181/42/30 165/98/30
f 165/98/30 181/42/30 182/45/30 166/99/30
f 166/99/30 182/45/30 183/46/30 167/100/30
f 167/100/30 183/46/30 184/13/30 168/80/30
f 123/44/4 56/102/4 89/101/4 116/43/4
f 116/43/4 89/101/4 90/103/4 115/48/4
f 115/48/4 90/103/4 91/104/4 114/47/4
f 114/47/4 91/104/4 92/93/4 113/16/4
f 154/85/25 153/52/25 177/53/25 173/105/25
f 173/105/25 177/53/25 178/56/25 174/106/25
f 174/106/25 178/56/25 179/73/25 175/107/25
f 175/107/25 179/73/25 180/37/25 176/88/25
f 150/84/25 154/85/25 173/105/25 172/96/25
f 172/96/25 173/105/25 174/106/25 171/108/25
f 171/108/25 174/106/25 175/107/25 170/109/25
f 170/109/25 175/107/25 176/88/25 169/78/25
f 135/59/25 149/81/25 165/98/25 137/58/25
f 137/58/25 165/98/25 166/99/25 140/60/25
f 140/60/25 166/99/25 167/100/25 134/62/25
f 134/62/25 167/100/25 168/80/25 133/72/25
f 161/95/33 150/84/33 172/96/33 185/94/33
f 190/71/34 171/108/34 186/71/34
f 186/71/35 171/108/35 170/109/35 187/97/35
f 187/97/36 170/109/36 191/97/36
f 120/11/8 185/94/8 189/94/8 112/11/8
f 112/11/3 189/94/3 190/71/3 111/69/3
f 109/67/3 110/66/3 191/97/3 192/74/3
f 117/28/13 88/25/13 104/25/13 109/67/13
f 119/69/11 86/68/11 102/68/11 111/69/11
f 188/74/37 192/74/37 169/78/37
f 118/66/9 187/97/9 191/97/9 110/66/9
f 169/78/38 192/74/38 191/97/38 170/109/38
f 171/108/38 190/71/38 189/94/38 172/96/38
