# Blender 3.6.0
# www.blender.org
mtllib cube_room.mtl
o Cube
v 10.000000 10.000000 -10.000000
v 10.000000 -10.000000 -10.000000
v 10.000000 10.000000 10.000000
v 10.000000 -10.000000 10.000000
v -10.000000 10.000000 -10.000000
v -10.000000 -10.000000 -10.000000
v -10.000000 10.000000 10.000000
v -10.000000 -10.000000 10.000000
v 10.230000 10.230000 -10.230000
v 10.230000 -10.230000 -10.230000
v 10.230000 10.230000 10.230000
v 10.230000 -10.230000 10.230000
v -10.230000 10.230000 -10.230000
v -10.230000 -10.230000 -10.230000
v -10.230000 10.230000 10.230000
v -10.230000 -10.230000 10.230000
vn -0.0000 -1.0000 -0.0000
vn -0.0000 -0.0000 -1.0000
vn 1.0000 -0.0000 -0.0000
vn -0.0000 1.0000 -0.0000
vn -1.0000 -0.0000 -0.0000
vn -0.0000 -0.0000 1.0000
vt 0.625000 0.500000
vt 0.625000 0.750000
vt 0.875000 0.750000
vt 0.875000 0.500000
vt 0.375000 0.750000
vt 0.375000 1.000000
vt 0.625000 1.000000
vt 0.375000 0.000000
vt 0.375000 0.250000
vt 0.625000 0.250000
vt 0.625000 0.000000
vt 0.125000 0.500000
vt 0.125000 0.750000
vt 0.375000 0.500000
s 0
usemtl Material
f 1/1/1 3/2/1 7/3/1 5/4/1
f 4/5/2 8/6/2 7/7/2 3/2/2
f 8/8/3 6/9/3 5/10/3 7/11/3
f 6/12/4 8/13/4 4/5/4 2/14/4
f 2/14/5 4/5/5 3/2/5 1/1/5
f 6/9/6 2/14/6 1/1/6 5/10/6
f 9/1/4 13/4/4 15/3/4 11/2/4
f 12/5/6 11/2/6 15/7/6 16/6/6
f 16/8/5 15/11/5 13/10/5 14/9/5
f 14/12/1 10/14/1 12/5/1 16/13/1
f 10/14/3 9/1/3 11/2/3 12/5/3
f 14/9/2 13/10/2 9/1/2 10/14/2
