# Blender 3.6.0
# www.blender.org
o tap
v 0.000000 -1.000000 0.979410
v 0.000000 -1.000000 3.377198
v -0.707107 -0.707107 0.979410
v -0.707107 -0.707107 3.377198
v -1.000000 0.000000 0.979410
v -1.000000 0.000000 3.377198
v -0.707107 0.707107 0.979410
v -0.707107 0.707107 3.377198
v 0.000000 1.000000 0.979410
v 0.000000 1.000000 3.377198
v 0.000000 -1.000000 0.579316
v -0.707107 -0.707107 0.579316
v -1.000000 0.000000 0.579316
v -0.707107 0.707107 0.579316
v 0.000000 1.000000 0.579316
v -0.799565 0.799565 0.846045
v -0.799565 0.799565 0.712681
v -1.130756 -0.000000 0.712681
v -1.130756 -0.000000 0.846045
v 0.000000 1.130756 0.846045
v 0.000000 1.130756 0.712681
v -0.799565 -0.799565 0.712681
v -0.799565 -0.799565 0.846045
v 0.000000 -1.130756 0.846045
v 0.000000 -1.130756 0.712681
v 0.000000 -0.867381 0.579316
v -0.613331 -0.613331 0.579316
v -0.867381 0.000000 0.579316
v -0.613331 0.613331 0.579316
v 0.000000 0.867381 0.579316
v 0.000000 -0.653610 0.724128
v -0.462172 -0.462172 0.724128
v -0.653610 -0.000000 0.724128
v -0.462172 0.462172 0.724128
v 0.000000 0.653610 0.724128
v 0.000000 -0.314590 1.948183
v -0.222449 -0.222449 1.948183
v -0.314590 -0.000000 1.948183
v -0.222449 0.222449 1.948183
v 0.000000 0.314590 1.948183
v 0.000000 -1.005432 3.552941
v -0.707107 -1.005432 3.845834
v -1.000000 -1.005432 4.552941
v -0.707107 -1.005432 5.260047
v 0.000000 -1.005432 5.552941
v 0.000000 -5.175530 5.552941
v -0.707107 -5.175530 5.260047
v -1.000000 -5.175530 4.552941
v -0.707107 -5.175530 3.845834
v -0.707107 0.347517 4.495454
v 0.000000 0.493963 4.641901
v 0.000000 -5.175530 3.552941
v -0.707107 -0.856269 3.611516
v -1.000000 -0.502716 3.965069
v 0.000000 -1.002716 3.465069
v 0.000000 -5.131062 3.460646
v 0.000000 -5.131062 5.645236
v -0.834082 -5.131062 5.260047
v -0.834082 -5.131062 3.845834
v -1.126976 -5.131062 4.552941
v -0.781748 -4.267893 3.845834
v -0.781748 -4.267893 5.260047
v 0.000000 -4.267893 5.645236
v 0.000000 -4.267893 3.460646
v -1.074641 -4.267893 4.552941
v -0.707107 -4.181466 3.845834
v -0.707107 -4.181466 5.260047
v 0.000000 -4.181466 5.552941
v 0.000000 -4.181466 3.552941
v -1.000000 -4.181466 4.552941
v 0.000000 -4.985413 3.242672
v 0.000000 -4.985413 5.863210
v -1.007107 -4.985413 5.401469
v -1.007107 -4.985413 3.704413
v -1.300000 -4.985413 4.552941
v -1.007107 -4.413543 3.704413
v -1.007107 -4.413543 5.401469
v 0.000000 -4.413543 5.863210
v 0.000000 -4.413543 3.242672
v -1.300000 -4.413543 4.552941
v 0.707107 -0.707107 0.979410
v 0.707107 -0.707107 3.377198
v 1.000000 0.000000 0.979410
v 1.000000 0.000000 3.377198
v 0.707107 0.707107 0.979410
v 0.707107 0.707107 3.377198
v 0.707107 -0.707107 0.579316
v 1.000000 0.000000 0.579316
v 0.707107 0.707107 0.579316
v 0.799565 0.799565 0.846045
v 0.799565 0.799565 0.712681
v 1.130756 -0.000000 0.712681
v 1.130756 -0.000000 0.846045
v 0.799565 -0.799565 0.712681
v 0.799565 -0.799565 0.846045
v 0.613331 -0.613331 0.579316
v 0.867381 0.000000 0.579316
v 0.613331 0.613331 0.579316
v 0.462172 -0.462172 0.724128
v 0.653610 -0.000000 0.724128
v 0.462172 0.462172 0.724128
v 0.222449 -0.222449 1.948183
v 0.314590 -0.000000 1.948183
v 0.222449 0.222449 1.948183
v 0.707107 -1.005432 3.845834
v 1.000000 -1.005432 4.552941
v 0.707107 -1.005432 5.260047
v 0.707107 -5.175530 5.260047
v 1.000000 -5.175530 4.552941
v 0.707107 -5.175530 3.845834
v 0.707107 0.347517 4.495454
v 0.707107 -0.856269 3.611516
v 1.000000 -0.502716 3.965069
v 0.834082 -5.131062 5.260047
v 0.834082 -5.131062 3.845834
v 1.126976 -5.131062 4.552941
v 0.781748 -4.267893 3.845834
v 0.781748 -4.267893 5.260047
v 1.074641 -4.267893 4.552941
v 0.707107 -4.181466 3.845834
v 0.707107 -4.181466 5.260047
v 1.000000 -4.181466 4.552941
v 1.007107 -4.985413 5.401469
v 1.007107 -4.985413 3.704413
v 1.300000 -4.985413 4.552941
v 1.007107 -4.413543 3.704413
v 1.007107 -4.413543 5.401469
v 1.300000 -4.413543 4.552941
vn -0.3827 -0.9239 -0.0000
vn -0.9239 -0.3827 -0.0000
vn -0.9239 0.3827 -0.0000
vn -0.3827 0.9239 -0.0000
vn -0.2208 -0.8362 0.5020
vn -0.6847 0.2836 -0.6713
vn -0.2836 0.6847 -0.6713
vn -0.6847 -0.2836 -0.6713
vn -0.2836 -0.6847 -0.6713
vn -0.2836 -0.6847 0.6713
vn -0.6847 -0.2836 0.6713
vn -0.2836 0.6847 0.6713
vn -0.6847 0.2836 0.6713
vn -0.0000 -0.0000 -1.0000
vn 0.3707 0.8950 -0.2479
vn 0.2263 -0.5463 -0.8064
vn 0.5463 0.2263 -0.8064
vn 0.5463 -0.2263 -0.8064
vn 0.2263 0.5463 -0.8064
vn 0.3707 -0.8950 -0.2479
vn 0.8950 0.3707 -0.2479
vn 0.8950 -0.3707 -0.2479
vn -0.3275 -0.9351 -0.1356
vn -0.3050 0.4824 0.8211
vn -0.2208 -0.8362 -0.5020
vn -0.8477 -0.4157 -0.3296
vn -0.3275 -0.9351 0.1356
vn -0.2206 -0.8823 -0.4159
vn -0.9316 0.2142 0.2938
vn -0.9410 0.3020 0.1526
vn -0.3092 -0.8602 -0.4055
vn -0.8734 -0.3816 -0.3025
vn -0.3111 0.8933 0.3245
vn -0.2434 0.8225 -0.5141
vn -0.5754 -0.7887 0.2167
vn -0.4918 0.8508 -0.1852
vn -0.2465 -0.8075 0.5359
vn -0.3451 0.5537 0.7578
vn -0.7222 0.6237 -0.2991
vn -0.3451 0.5537 -0.7578
vn -0.7222 0.6237 0.2991
vn -0.9239 -0.0000 0.3827
vn -0.3827 -0.0000 -0.9239
vn -0.9239 -0.0000 -0.3827
vn -0.3827 -0.0000 0.9239
vn -0.9453 -0.0000 0.3263
vn -0.4168 -0.0000 -0.9090
vn -0.9453 -0.0000 -0.3263
vn -0.4168 -0.0000 0.9090
vn -0.2465 -0.8075 -0.5359
vn -0.4918 0.8508 0.1852
vn 1.0000 -0.0000 -0.0000
vn -0.5754 -0.7887 -0.2167
vn -0.2434 0.8225 0.5141
vn -0.0000 -1.0000 -0.0000
vn 0.3827 -0.9239 -0.0000
vn 0.9239 -0.3827 -0.0000
vn 0.9239 0.3827 -0.0000
vn 0.3827 0.9239 -0.0000
vn 0.2208 -0.8362 0.5020
vn 0.6847 0.2836 -0.6713
vn 0.2836 0.6847 -0.6713
vn 0.6847 -0.2836 -0.6713
vn 0.2836 -0.6847 -0.6713
vn 0.2836 -0.6847 0.6713
vn 0.6847 -0.2836 0.6713
vn 0.2836 0.6847 0.6713
vn 0.6847 0.2836 0.6713
vn -0.3707 0.8950 -0.2479
vn -0.2263 -0.5463 -0.8064
vn -0.5463 0.2263 -0.8064
vn -0.5463 -0.2263 -0.8064
vn -0.2263 0.5463 -0.8064
vn -0.3707 -0.8950 -0.2479
vn -0.8950 0.3707 -0.2479
vn -0.8950 -0.3707 -0.2479
vn 0.3275 -0.9351 -0.1356
vn 0.3050 0.4824 0.8211
vn 0.2208 -0.8362 -0.5020
vn 0.8477 -0.4157 -0.3296
vn 0.3275 -0.9351 0.1356
vn 0.2206 -0.8823 -0.4159
vn 0.9316 0.2142 0.2938
vn 0.9410 0.3020 0.1526
vn 0.3092 -0.8602 -0.4055
vn 0.8734 -0.3816 -0.3025
vn 0.3111 0.8933 0.3245
vn 0.2434 0.8225 -0.5141
vn 0.5754 -0.7887 0.2167
vn 0.4918 0.8508 -0.1852
vn 0.2465 -0.8075 0.5359
vn 0.3451 0.5537 0.7578
vn 0.7222 0.6237 -0.2991
vn 0.3451 0.5537 -0.7578
vn 0.7222 0.6237 0.2991
vn 0.9239 -0.0000 0.3827
vn 0.3827 -0.0000 -0.9239
vn 0.9239 -0.0000 -0.3827
vn 0.3827 -0.0000 0.9239
vn 0.9453 -0.0000 0.3263
vn 0.4168 -0.0000 -0.9090
vn 0.9453 -0.0000 -0.3263
vn 0.4168 -0.0000 0.9090
vn 0.2465 -0.8075 -0.5359
vn 0.4918 0.8508 0.1852
vn 0.5754 -0.7887 -0.2167
vn 0.2434 0.8225 0.5141
vt 0.464548 0.522120
vt 0.464548 0.174759
vt 0.574705 0.177599
vt 0.574705 0.524960
vt 0.638329 0.190568
vt 0.638329 0.537929
vt 0.238748 0.521028
vt 0.266732 0.171559
vt 0.353332 0.181236
vt 0.325348 0.530705
vt 0.464381 0.189668
vt 0.436397 0.539138
vt 0.240114 0.567783
vt 0.359440 0.619979
vt 0.339908 0.619632
vt 0.238748 0.580258
vt 0.980531 0.623698
vt 0.933690 0.740693
vt 0.915609 0.727165
vt 0.957034 0.623698
vt 0.820606 0.789154
vt 0.815602 0.770022
vt 0.933690 0.506703
vt 0.915609 0.520232
vt 0.842585 0.265261
vt 0.842585 0.389864
vt 0.820744 0.380037
vt 0.820744 0.269842
vt 0.615336 0.555268
vt 0.527361 0.592342
vt 0.505586 0.579851
vt 0.605065 0.537929
vt 0.861899 0.264763
vt 0.861899 0.389366
vt 0.490920 0.692965
vt 0.464381 0.693631
vt 0.849093 0.461663
vt 0.829779 0.462161
vt 0.527361 0.798194
vt 0.615336 0.846386
vt 0.605065 0.867113
vt 0.505586 0.812619
vt 0.634835 0.636443
vt 0.636797 0.762358
vt 0.617298 0.762582
vt 0.615336 0.636667
vt 0.636797 0.537929
vt 0.617298 0.538153
vt 0.815602 0.750616
vt 0.902346 0.713443
vt 0.938277 0.623698
vt 0.902346 0.533954
vt 0.815602 0.477375
vt 0.815602 0.496780
vt 0.127569 0.887259
vt 0.083678 0.901250
vt 0.083678 0.716588
vt 0.104803 0.709854
vt 0.821036 0.719337
vt 0.886401 0.691325
vt 0.995092 0.995178
vt 0.905347 1.000000
vt 0.905347 0.974932
vt 0.972974 0.971299
vt 0.815602 0.995178
vt 0.837721 0.971299
vt 0.886401 0.556072
vt 0.821036 0.528060
vt 0.188092 0.894149
vt 0.127569 0.894149
vt 0.135009 0.709854
vt 0.164139 0.709854
vt 0.905347 0.790903
vt 0.937897 0.789154
vt 0.872798 0.789154
vt 0.401342 0.721149
vt 0.359440 0.824852
vt 0.339908 0.824506
vt 0.381811 0.720803
vt 0.187926 0.709854
vt 0.086936 0.693173
vt 0.128445 0.482349
vt 0.238748 0.474997
vt 0.240114 0.884259
vt 0.238748 0.869993
vt 0.622886 0.095284
vt 0.570123 0.140651
vt 0.565541 0.103703
vt 0.607443 0.000000
vt 0.464464 0.161975
vt 0.464381 0.149190
vt 0.000000 0.580683
vt 0.038416 0.496558
vt 0.238748 0.080572
vt 0.341459 0.014458
vt 0.444066 0.000000
vt 0.715125 0.775191
vt 0.815602 0.829388
vt 0.805416 0.860532
vt 0.675974 0.795754
vt 0.388667 0.601676
vt 0.430569 0.723334
vt 0.677480 0.672598
vt 0.638329 0.672483
vt 0.244588 0.539138
vt 0.200331 0.014296
vt 0.090028 0.021648
vt 0.079680 0.009298
vt 0.206272 -0.000000
vt 0.693118 0.672827
vt 0.730763 0.775420
vt 0.752788 0.012646
vt 0.641792 0.012646
vt 0.638329 0.000000
vt 0.763345 0.000000
vt 0.730763 0.568643
vt 0.715125 0.568415
vt 0.000000 0.035857
vt 0.752788 0.477375
vt 0.641792 0.477375
vt 0.820744 0.477375
vt 0.820744 0.012646
vt 0.903959 0.162797
vt 0.909944 0.264763
vt 0.826728 0.262729
vt 0.820744 0.160763
vt 0.083678 0.783116
vt 0.083678 0.942877
vt 0.000000 0.942877
vt 0.000000 0.783116
vt 0.083678 0.709855
vt 0.000000 0.709855
vt 0.909944 0.002035
vt 0.826728 -0.000000
vt 0.388667 0.847524
vt 0.244588 0.918769
vt 0.675974 0.547622
vt 0.430569 0.665440
vt 0.430569 0.539138
vt 0.462195 0.560450
vt 0.462195 0.644128
vt 0.815602 0.509972
vt 0.805416 0.477375
vt 0.462195 0.665440
vt 0.462195 0.791741
vt 0.430570 0.770429
vt 0.430570 0.686751
vt 0.188092 0.709854
vt 0.219553 0.723337
vt 0.232585 0.755886
vt 0.219553 0.788436
vt 0.188092 0.801918
s 0
f 1/1/1 2/2/1 4/3/1 3/4/1
f 3/4/2 4/3/2 6/5/2 5/6/2
f 5/7/3 6/8/3 8/9/3 7/10/3
f 7/10/4 8/9/4 10/11/4 9/12/4
f 57/13/5 58/14/5 47/15/5 46/16/5
f 18/17/6 17/18/6 14/19/6 13/20/6
f 17/18/7 21/21/7 15/22/7 14/19/7
f 22/23/8 18/17/8 13/20/8 12/24/8
f 25/25/9 22/26/9 12/27/9 11/28/9
f 1/29/10 3/30/10 23/31/10 24/32/10
f 24/33/1 23/34/1 22/26/1 25/25/1
f 3/30/11 5/35/11 19/36/11 23/31/11
f 23/34/2 19/37/2 18/38/2 22/26/2
f 7/39/12 9/40/12 20/41/12 16/42/12
f 16/43/4 20/44/4 21/45/4 17/46/4
f 5/35/13 7/39/13 16/42/13 19/36/13
f 19/47/3 16/43/3 17/46/3 18/48/3
f 14/19/14 15/22/14 30/49/14 29/50/14
f 12/24/14 13/20/14 28/51/14 27/52/14
f 13/20/14 14/19/14 29/50/14 28/51/14
f 11/53/14 12/24/14 27/52/14 26/54/14
f 31/55/15 32/56/15 37/57/15 36/58/15
f 29/50/16 30/49/16 35/59/16 34/60/16
f 27/61/17 28/62/17 33/63/17 32/64/17
f 28/62/18 29/65/18 34/66/18 33/63/18
f 26/54/19 27/52/19 32/67/19 31/68/19
f 34/69/20 35/70/20 40/71/20 39/72/20
f 32/64/21 33/63/21 38/73/21 37/74/21
f 33/63/22 34/66/22 39/75/22 38/73/22
f 60/76/23 59/77/23 49/78/23 48/79/23
f 51/80/24 50/81/24 44/82/24 45/83/24
f 59/77/25 56/84/25 52/85/25 49/78/25
f 54/86/26 53/87/26 42/88/26 43/89/26
f 58/14/27 60/76/27 48/79/27 47/15/27
f 53/87/28 55/90/28 41/91/28 42/88/28
f 50/81/29 54/92/29 43/93/29 44/82/29
f 8/9/30 6/8/30 54/94/30 50/95/30
f 4/3/31 2/2/31 55/90/31 53/87/31
f 6/5/32 4/3/32 53/87/32 54/86/32
f 10/11/33 8/9/33 50/95/33 51/96/33
f 61/97/34 64/98/34 79/99/34 76/100/34
f 60/76/35 58/14/35 73/101/35 75/102/35
f 65/103/36 61/97/36 76/100/36 80/104/36
f 58/14/37 57/13/37 72/105/37 73/101/37
f 68/106/38 67/107/38 62/108/38 63/109/38
f 70/110/39 66/111/39 61/97/39 65/103/39
f 66/112/40 69/113/40 64/114/40 61/115/40
f 67/116/41 70/110/41 65/103/41 62/117/41
f 44/82/42 43/93/42 70/118/42 67/107/42
f 42/119/43 41/120/43 69/113/43 66/112/43
f 43/121/44 42/119/44 66/112/44 70/122/44
f 45/83/45 44/82/45 67/107/45 68/106/45
f 77/123/46 80/124/46 75/125/46 73/126/46
f 76/127/47 79/128/47 71/129/47 74/130/47
f 80/131/48 76/127/48 74/130/48 75/132/48
f 78/133/49 77/123/49 73/126/49 72/134/49
f 56/84/50 59/77/50 74/135/50 71/136/50
f 62/117/51 65/103/51 80/104/51 77/137/51
f 64/138/52 56/139/52 71/140/52 79/141/52
f 59/77/53 60/76/53 75/102/53 74/135/53
f 63/142/54 62/117/54 77/137/54 78/143/54
f 57/144/52 63/145/52 78/146/52 72/147/52
f 49/78/55 52/85/55 46/16/55 47/15/55 48/79/55
f 36/148/14 37/149/14 38/150/14 39/151/14 40/152/14
f 1/1/56 81/4/56 82/3/56 2/2/56
f 81/4/57 83/6/57 84/5/57 82/3/57
f 83/7/58 85/10/58 86/9/58 84/8/58
f 85/10/59 9/12/59 10/11/59 86/9/59
f 57/13/60 46/16/60 108/15/60 114/14/60
f 92/17/61 88/20/61 89/19/61 91/18/61
f 91/18/62 89/19/62 15/22/62 21/21/62
f 94/23/63 87/24/63 88/20/63 92/17/63
f 25/25/64 11/28/64 87/27/64 94/26/64
f 1/29/65 24/32/65 95/31/65 81/30/65
f 24/33/56 25/25/56 94/26/56 95/34/56
f 81/30/66 95/31/66 93/36/66 83/35/66
f 95/34/57 94/26/57 92/38/57 93/37/57
f 85/39/67 90/42/67 20/41/67 9/40/67
f 90/43/59 91/46/59 21/45/59 20/44/59
f 83/35/68 93/36/68 90/42/68 85/39/68
f 93/47/58 92/48/58 91/46/58 90/43/58
f 89/19/14 98/50/14 30/49/14 15/22/14
f 87/24/14 96/52/14 97/51/14 88/20/14
f 88/20/14 97/51/14 98/50/14 89/19/14
f 11/53/14 26/54/14 96/52/14 87/24/14
f 31/55/69 36/58/69 102/57/69 99/56/69
f 98/50/70 101/60/70 35/59/70 30/49/70
f 96/61/71 99/64/71 100/63/71 97/62/71
f 97/62/72 100/63/72 101/66/72 98/65/72
f 26/54/73 31/68/73 99/67/73 96/52/73
f 101/69/74 104/72/74 40/71/74 35/70/74
f 99/64/75 102/74/75 103/73/75 100/63/75
f 100/63/76 103/73/76 104/75/76 101/66/76
f 116/76/77 109/79/77 110/78/77 115/77/77
f 51/80/78 45/83/78 107/82/78 111/81/78
f 115/77/79 110/78/79 52/85/79 56/84/79
f 113/86/80 106/89/80 105/88/80 112/87/80
f 114/14/81 108/15/81 109/79/81 116/76/81
f 112/87/82 105/88/82 41/91/82 55/90/82
f 111/81/83 107/82/83 106/93/83 113/92/83
f 86/9/84 111/95/84 113/94/84 84/8/84
f 82/3/85 112/87/85 55/90/85 2/2/85
f 84/5/86 113/86/86 112/87/86 82/3/86
f 10/11/87 51/96/87 111/95/87 86/9/87
f 117/97/88 126/100/88 79/99/88 64/98/88
f 116/76/89 125/102/89 123/101/89 114/14/89
f 119/103/90 128/104/90 126/100/90 117/97/90
f 114/14/91 123/101/91 72/105/91 57/13/91
f 68/106/92 63/109/92 118/108/92 121/107/92
f 122/110/93 119/103/93 117/97/93 120/111/93
f 120/112/94 117/115/94 64/114/94 69/113/94
f 121/116/95 118/117/95 119/103/95 122/110/95
f 107/82/96 121/107/96 122/118/96 106/93/96
f 105/119/97 120/112/97 69/113/97 41/120/97
f 106/121/98 122/122/98 120/112/98 105/119/98
f 45/83/99 68/106/99 121/107/99 107/82/99
f 127/123/100 123/126/100 125/125/100 128/124/100
f 126/127/101 124/130/101 71/129/101 79/128/101
f 128/131/102 125/132/102 124/130/102 126/127/102
f 78/133/103 72/134/103 123/126/103 127/123/103
f 56/84/104 71/136/104 124/135/104 115/77/104
f 118/117/105 127/137/105 128/104/105 119/103/105
f 115/77/106 124/135/106 125/102/106 116/76/106
f 63/142/107 78/143/107 127/137/107 118/117/107
f 110/78/55 109/79/55 108/15/55 46/16/55 52/85/55
f 36/148/14 40/152/14 104/151/14 103/150/14 102/149/14
